<svg width="47" height="31" viewBox="0 0 47 31" fill="none" xmlns="http://www.w3.org/2000/svg">
<path d="M46.4653 -9.61243e-06H2.70568e-06V31H46.4653V-9.61243e-06Z" fill="#034EA2"/>
<path d="M23.7362 4.40645H25.3515L24.0493 5.41909L24.557 7.02508L23.259 6.03524L21.963 7.02508L22.4735 5.41909L21.1588 4.40645H22.7713L23.259 2.83984L23.7362 4.40645Z" fill="#FFF200"/>
<path d="M23.7932 25.0821H25.4112L24.109 26.0581L24.6154 27.6026L23.3187 26.6501L22.0214 27.6026L22.5333 26.0581L21.2158 25.0821H22.8304L23.3187 23.5742L23.7932 25.0821Z" fill="#FFF200"/>
<path d="M28.9193 23.7123H30.5387L29.2359 24.6855L29.7443 26.2307L28.4462 25.2782L27.1468 26.2307L27.658 24.6855L26.3427 23.7123H27.9558L28.4462 22.2051L28.9193 23.7123Z" fill="#FFF200"/>
<path d="M28.9193 5.78581H30.5387L29.2359 6.75977L29.7443 8.30566L28.4462 7.35313L27.1468 8.30566L27.658 6.75977L26.3427 5.78581H27.9558L28.4462 4.2793L28.9193 5.78581Z" fill="#FFF200"/>
<path d="M32.7277 9.58349H34.3429L33.0408 10.5554L33.5478 12.102L32.2484 11.1494L30.9545 12.102L31.4643 10.5554L30.1489 9.58349H31.7607L32.2484 8.07421L32.7277 9.58349Z" fill="#FFF200"/>
<path d="M32.7277 19.9669H34.3429L33.0408 20.9422L33.5478 22.4874L32.2484 21.5349L30.9545 22.4874L31.4643 20.9422L30.1489 19.9669H31.7607L32.2484 18.459L32.7277 19.9669Z" fill="#FFF200"/>
<path d="M34.1532 14.6972H35.7726L34.4691 15.6719L34.9768 17.2178L33.6774 16.2625L32.3786 17.2178L32.8912 15.6719L31.5745 14.6972H33.1884L33.6774 13.1914L34.1532 14.6972Z" fill="#FFF200"/>
<path d="M18.5103 5.79892H20.1269L18.8233 6.77424L19.3304 8.32014L18.033 7.3676L16.7329 8.32014L17.2455 6.77424L15.9315 5.79892H17.544L18.033 4.29101L18.5103 5.79892Z" fill="#FFF200"/>
<path d="M14.8087 9.59454H16.4275L15.1246 10.5678L15.6274 12.1137L14.3329 11.1611L13.0348 12.1137L13.5453 10.5678L12.23 9.59454H13.8453L14.3329 8.08594L14.8087 9.59454Z" fill="#FFF200"/>
<path d="M13.435 14.7091H15.0531L13.7495 15.683L14.2558 17.2282L12.9571 16.2784L11.6584 17.2282L12.1716 15.683L10.8577 14.7091H12.4695L12.9571 13.2012L13.435 14.7091Z" fill="#FFF200"/>
<path d="M14.8087 19.9798H16.4275L15.1246 20.9551L15.6274 22.5017L14.3329 21.5498L13.0348 22.5017L13.5453 20.9551L12.23 19.9798H13.8453L14.3329 18.4746L14.8087 19.9798Z" fill="#FFF200"/>
<path d="M18.5643 23.724H20.1809L18.8773 24.6993L19.3816 26.2445L18.0863 25.2913L16.7862 26.2445L17.2995 24.6993L15.9862 23.724H17.5973L18.0863 22.2168L18.5643 23.724Z" fill="#FFF200"/>
</svg>
