<svg width="240" height="84" viewBox="0 0 240 84" fill="none" xmlns="http://www.w3.org/2000/svg">
<path d="M83.8972 57.4395H87.8503V58.2685H84.7999V60.954H87.481V61.7816H84.7999V64.9707H87.9311V65.797H83.8972V57.4395Z" fill="white"/>
<path d="M89.3071 64.0656V59.7734H90.1527V63.8901C90.1527 64.6435 90.394 65.1201 91.145 65.1201C91.9881 65.1201 92.6236 64.1912 92.7405 64.0157V59.7734H93.5836V64.5301C93.5836 65.0445 93.642 65.5589 93.688 65.7979H92.8325C92.8076 65.6467 92.7616 65.2079 92.7529 64.9068C92.498 65.2821 91.9086 65.9491 90.9498 65.9491C89.7685 65.9491 89.3071 65.108 89.3071 64.0656Z" fill="white"/>
<path d="M95.4821 59.7743H96.3264V60.7153C96.544 60.3143 97.0302 59.623 97.8049 59.623C98.1394 59.623 98.3123 59.7122 98.3832 59.7486L98.1742 60.6276C98.1158 60.5898 97.9778 60.5277 97.6893 60.5277C96.8561 60.5277 96.3935 61.57 96.3264 61.7577V65.7974H95.4821V59.7743Z" fill="white"/>
<path d="M98.9847 62.7987C98.9847 61.3931 99.6438 59.623 101.516 59.623C103.388 59.623 104.163 61.3688 104.163 62.7743C104.163 64.1799 103.423 65.9486 101.551 65.9486C99.6761 65.9486 98.9847 64.2055 98.9847 62.7987ZM103.261 62.7987C103.261 61.5065 102.659 60.4142 101.504 60.4142C100.348 60.4142 99.8862 61.4809 99.8862 62.7743C99.8862 64.0665 100.405 65.1587 101.561 65.1587C102.718 65.1587 103.261 64.0921 103.261 62.7987Z" fill="white"/>
<path d="M105.574 59.7743H106.419V60.4278C106.706 60.0511 107.227 59.623 108.024 59.623C109.377 59.623 110.278 60.7788 110.278 62.7743C110.278 64.6686 109.261 65.9486 107.829 65.9486C107.042 65.9486 106.625 65.6219 106.419 65.422V68.5463H105.574V59.7743ZM109.377 62.7987C109.377 61.4566 108.902 60.4521 107.85 60.4521C107.075 60.4521 106.565 61.0677 106.419 61.2932V64.6065C106.671 64.8563 107.065 65.1588 107.745 65.1588C108.81 65.1588 109.377 64.1542 109.377 62.7987Z" fill="white"/>
<path d="M111.203 62.7487C111.203 60.98 112.221 59.623 113.7 59.623C115.076 59.623 115.884 60.691 115.884 62.3355C115.884 62.4733 115.873 62.611 115.862 62.7622H112.105C112.129 64.0408 112.602 65.1587 113.852 65.1587C114.627 65.1587 115.145 64.7821 115.389 64.6187L115.735 65.3343C115.458 65.5354 114.835 65.9486 113.83 65.9486C112.083 65.9486 111.203 64.5309 111.203 62.7487ZM115.017 62.0331C114.994 61.1798 114.637 60.4142 113.678 60.4142C112.786 60.4142 112.301 61.092 112.15 62.0331H115.017Z" fill="white"/>
<path d="M116.916 64.3297C116.916 62.7365 118.535 62.2599 119.875 62.2599H120.118V61.6942C120.118 60.8031 119.771 60.4386 119.006 60.4386C118.497 60.4386 118.061 60.6154 117.561 61.092L117.111 60.452C117.654 59.8998 118.29 59.623 119.063 59.623C120.278 59.623 120.961 60.2509 120.961 61.6186V64.4297C120.961 65.0318 121.018 65.5098 121.088 65.7974H120.245C120.21 65.634 120.175 65.2573 120.164 65.0696C119.793 65.5719 119.18 65.9486 118.499 65.9486C117.575 65.9486 116.916 65.3086 116.916 64.3297ZM120.118 64.2919V62.9364H119.875C118.685 62.9364 117.817 63.2874 117.817 64.3041C117.817 64.9319 118.302 65.1587 118.639 65.1587C119.262 65.1587 119.758 64.8063 120.118 64.2919Z" fill="white"/>
<path d="M122.813 59.7743H123.657V60.6411C124.154 59.9633 124.777 59.623 125.461 59.623C126.627 59.623 127.09 60.4642 127.09 61.5065V65.7974H126.246V61.6821C126.246 60.9287 126.003 60.452 125.263 60.452C124.64 60.452 124.048 60.9665 123.657 61.5565V65.7974H122.813V59.7743Z" fill="white"/>
<path d="M132.675 57.4395H131.772V65.797H132.675V57.4395Z" fill="white"/>
<path d="M134.803 59.7743H135.647V60.6411C136.143 59.9633 136.766 59.623 137.448 59.623C138.615 59.623 139.078 60.4642 139.078 61.5065V65.7974H138.235V61.6821C138.235 60.9287 137.991 60.452 137.253 60.452C136.627 60.452 136.038 60.9665 135.647 61.5565V65.7974H134.803V59.7743Z" fill="white"/>
<path d="M140.456 65.3842L140.825 64.6808C141.034 64.8442 141.529 65.1709 142.199 65.1709C142.893 65.1709 143.332 64.8563 143.332 64.3054C143.332 63.7532 142.917 63.5142 142.109 63.1376C141.241 62.7365 140.584 62.3099 140.584 61.2797C140.584 60.3521 141.229 59.623 142.341 59.623C143.254 59.623 143.807 60.0511 143.981 60.2023L143.565 60.8666C143.368 60.7032 142.953 60.4142 142.327 60.4142C141.739 60.4142 141.403 60.7288 141.403 61.2433C141.403 61.8076 141.852 62.0453 142.467 62.322C143.367 62.7365 144.188 63.1632 144.188 64.1799C144.188 65.2708 143.425 65.9621 142.213 65.9621C141.415 65.9621 140.802 65.6475 140.456 65.3842Z" fill="white"/>
<path d="M145.577 64.0656V59.7734H146.422V63.8901C146.422 64.6435 146.663 65.1201 147.414 65.1201C148.258 65.1201 148.893 64.1912 149.01 64.0157V59.7734H149.854V64.5301C149.854 65.0445 149.911 65.5589 149.957 65.7979H149.103C149.078 65.6467 149.032 65.2079 149.022 64.9068C148.769 65.2821 148.178 65.9491 147.219 65.9491C146.04 65.9491 145.577 65.108 145.577 64.0656Z" fill="white"/>
<path d="M151.751 59.7743H152.595V60.7153C152.813 60.3143 153.3 59.623 154.075 59.623C154.408 59.623 154.581 59.7122 154.652 59.7486L154.443 60.6276C154.386 60.5898 154.246 60.5277 153.958 60.5277C153.126 60.5277 152.662 61.57 152.595 61.7577V65.7974H151.751V59.7743Z" fill="white"/>
<path d="M155.3 64.3297C155.3 62.7365 156.919 62.2599 158.258 62.2599H158.502V61.6942C158.502 60.8031 158.155 60.4386 157.389 60.4386C156.882 60.4386 156.445 60.6154 155.945 61.092L155.495 60.452C156.039 59.8998 156.673 59.623 157.448 59.623C158.663 59.623 159.345 60.2509 159.345 61.6186V64.4297C159.345 65.0318 159.402 65.5098 159.472 65.7974H158.629C158.593 65.634 158.558 65.2573 158.547 65.0696C158.176 65.5719 157.563 65.9486 156.882 65.9486C155.958 65.9486 155.3 65.3086 155.3 64.3297ZM158.502 64.2919V62.9364H158.258C157.068 62.9364 156.202 63.2874 156.202 64.3041C156.202 64.9319 156.687 65.1587 157.022 65.1587C157.647 65.1587 158.143 64.8063 158.502 64.2919Z" fill="white"/>
<path d="M161.196 59.7743H162.041V60.6411C162.537 59.9633 163.16 59.623 163.842 59.623C165.009 59.623 165.473 60.4642 165.473 61.5065V65.7974H164.631V61.6821C164.631 60.9287 164.385 60.452 163.647 60.452C163.023 60.452 162.434 60.9665 162.042 61.5565V65.7974H161.197V59.7743H161.196Z" fill="white"/>
<path d="M166.838 62.7851C166.838 60.7275 168.017 59.623 169.393 59.623C170.306 59.623 170.826 59.9997 171.092 60.2252L170.687 60.9152C170.398 60.6775 170.026 60.4142 169.381 60.4142C168.236 60.4142 167.739 61.4431 167.739 62.7608C167.739 64.0408 168.248 65.1574 169.402 65.1574C170.097 65.1574 170.593 64.7942 170.754 64.6551L171.103 65.3451C170.882 65.5462 170.328 65.9486 169.356 65.9486C167.716 65.9486 166.838 64.4418 166.838 62.7851Z" fill="white"/>
<path d="M171.867 62.7487C171.867 60.98 172.884 59.623 174.363 59.623C175.738 59.623 176.548 60.691 176.548 62.3355C176.548 62.4733 176.535 62.611 176.525 62.7622H172.767C172.791 64.0408 173.265 65.1587 174.514 65.1587C175.289 65.1587 175.809 64.7821 176.051 64.6187L176.398 65.3343C176.121 65.5354 175.497 65.9486 174.492 65.9486C172.745 65.9486 171.867 64.5309 171.867 62.7487ZM175.682 62.0331C175.657 61.1798 175.3 60.4142 174.342 60.4142C173.451 60.4142 172.966 61.092 172.815 62.0331H175.682Z" fill="white"/>
<path d="M180.18 64.3297C180.18 62.7365 181.798 62.2599 183.139 62.2599H183.381V61.6942C183.381 60.8031 183.034 60.4386 182.27 60.4386C181.763 60.4386 181.324 60.6154 180.825 61.092L180.376 60.452C180.919 59.8998 181.553 59.623 182.328 59.623C183.543 59.623 184.224 60.2509 184.224 61.6186V64.4297C184.224 65.0318 184.282 65.5098 184.351 65.7974H183.508C183.475 65.634 183.438 65.2573 183.427 65.0696C183.057 65.5719 182.444 65.9486 181.763 65.9486C180.838 65.9486 180.18 65.3086 180.18 64.3297ZM183.381 64.2919V62.9364H183.139C181.949 62.9364 181.081 63.2874 181.081 64.3041C181.081 64.9319 181.567 65.1587 181.903 65.1587C182.527 65.1587 183.023 64.8063 183.381 64.2919Z" fill="white"/>
<path d="M186.078 59.7743H186.922V60.6411C187.418 59.9633 188.041 59.623 188.724 59.623C189.89 59.623 190.353 60.4642 190.353 61.5065V65.7974H189.51V61.6821C189.51 60.9287 189.266 60.452 188.528 60.452C187.903 60.452 187.314 60.9665 186.922 61.5565V65.7974H186.078V59.7743Z" fill="white"/>
<path d="M191.72 62.7983C191.72 60.8905 192.772 59.6227 194.169 59.6227C194.746 59.6227 195.223 59.7982 195.579 60.1506V56.7617H196.424V64.5684C196.424 64.9816 196.492 65.4838 196.563 65.7971H195.719C195.684 65.6715 195.627 65.3326 195.614 65.1071C195.234 65.6215 194.679 65.9483 194.008 65.9483C192.678 65.9483 191.72 64.806 191.72 62.7983ZM195.579 64.2916V60.9661C195.234 60.6151 194.817 60.4126 194.251 60.4126C193.198 60.4126 192.621 61.4185 192.621 62.7727C192.621 64.1404 193.072 65.1206 194.18 65.1206C194.678 65.1206 195.223 64.8182 195.579 64.2916Z" fill="white"/>
<path d="M83.4007 76.9203C83.4007 74.6236 84.7996 72.5781 87.1685 72.5781C89.5386 72.5781 90.96 74.5993 90.96 76.8946C90.96 79.1926 89.561 81.2381 87.1909 81.2381C84.822 81.2381 83.4007 79.2182 83.4007 76.9203ZM90.0112 76.9203C90.0112 75.0381 89.0301 73.395 87.1909 73.395C85.353 73.395 84.347 75.0125 84.347 76.8946C84.347 78.7781 85.3306 80.4226 87.1673 80.4226C89.0064 80.4226 90.0112 78.8037 90.0112 76.9203Z" fill="white"/>
<path d="M92.0829 78.0761C92.0829 76.0198 93.2617 74.9141 94.6383 74.9141C95.551 74.9141 96.0708 75.2908 96.3369 75.5162L95.9328 76.2062C95.643 75.9685 95.2725 75.7053 94.6259 75.7053C93.4806 75.7053 92.9857 76.7341 92.9857 78.0518C92.9857 79.3318 93.493 80.4484 94.6482 80.4484C95.3421 80.4484 95.8395 80.0852 96.0012 79.9461L96.3494 80.6361C96.1293 80.8372 95.5747 81.2396 94.6022 81.2396C92.9608 81.2382 92.0829 79.7328 92.0829 78.0761Z" fill="white"/>
<path d="M97.1119 78.0761C97.1119 76.0198 98.292 74.9141 99.6686 74.9141C100.581 74.9141 101.1 75.2908 101.367 75.5162L100.963 76.2062C100.673 75.9685 100.302 75.7053 99.6549 75.7053C98.5109 75.7053 98.016 76.7341 98.016 78.0518C98.016 79.3318 98.5233 80.4484 99.6786 80.4484C100.372 80.4484 100.87 80.0852 101.032 79.9461L101.38 80.6361C101.16 80.8372 100.605 81.2396 99.6325 81.2396C97.9911 81.2382 97.1119 79.7328 97.1119 78.0761Z" fill="white"/>
<path d="M102.616 79.3566V75.0645H103.46V79.1811C103.46 79.9345 103.7 80.4111 104.454 80.4111C105.297 80.4111 105.932 79.4822 106.048 79.3067V75.0645H106.891V79.8211C106.891 80.3355 106.948 80.8499 106.994 81.0875H106.14C106.116 80.9363 106.069 80.4975 106.06 80.1964C105.803 80.5731 105.215 81.2388 104.256 81.2388C103.077 81.2401 102.616 80.3989 102.616 79.3566Z" fill="white"/>
<path d="M108.788 75.0639H109.633V75.7174C109.921 75.3407 110.441 74.9141 111.238 74.9141C112.592 74.9141 113.493 76.0685 113.493 78.064C113.493 79.9583 112.475 81.2383 111.043 81.2383C110.258 81.2383 109.84 80.9115 109.633 80.7117V83.836H108.788V75.0639ZM112.592 78.0883C112.592 76.7462 112.119 75.7417 111.065 75.7417C110.289 75.7417 109.782 76.3574 109.633 76.5829V79.8962C109.886 80.146 110.281 80.4484 110.961 80.4484C112.024 80.4484 112.592 79.4439 112.592 78.0883Z" fill="white"/>
<path d="M114.465 79.6188C114.465 78.0256 116.084 77.549 117.424 77.549H117.667V76.9833C117.667 76.0922 117.32 75.7276 116.555 75.7276C116.047 75.7276 115.61 75.9045 115.11 76.3811L114.66 75.7411C115.204 75.1889 115.838 74.9121 116.611 74.9121C117.827 74.9121 118.51 75.5399 118.51 76.9077V79.7187C118.51 80.3209 118.567 80.7988 118.637 81.0864H117.794C117.759 80.9231 117.724 80.5464 117.713 80.36C117.342 80.861 116.729 81.2377 116.048 81.2377C115.124 81.2377 114.465 80.5977 114.465 79.6188ZM117.667 79.581V78.2254H117.424C116.234 78.2254 115.366 78.5765 115.366 79.5931C115.366 80.221 115.851 80.4478 116.188 80.4478C116.811 80.4478 117.308 80.0968 117.667 79.581Z" fill="white"/>
<path d="M120.558 79.645V75.7916H119.647V75.0639H120.558V73.3438H121.403V75.0639H122.802V75.7916H121.403V79.5572C121.403 80.1581 121.564 80.4483 122.049 80.4483C122.397 80.4483 122.708 80.2593 122.802 80.1837L123.114 80.875C122.952 80.9871 122.548 81.2382 121.945 81.2382C121.021 81.2382 120.558 80.6482 120.558 79.645Z" fill="white"/>
<path d="M124.198 73.2559C124.198 72.8792 124.477 72.5781 124.822 72.5781C125.171 72.5781 125.445 72.8792 125.445 73.2559C125.445 73.6326 125.169 73.9337 124.822 73.9337C124.478 73.9337 124.198 73.6326 124.198 73.2559ZM124.398 75.0624H125.253V81.0855H124.398V75.0624Z" fill="white"/>
<path d="M126.732 78.0883C126.732 76.6828 127.391 74.9141 129.265 74.9141C131.135 74.9141 131.911 76.6585 131.911 78.064C131.911 79.4695 131.172 81.2383 129.3 81.2383C127.425 81.2383 126.732 79.4952 126.732 78.0883ZM131.01 78.0883C131.01 76.7962 130.408 75.7039 129.253 75.7039C128.096 75.7039 127.634 76.7719 127.634 78.064C127.634 79.3561 128.154 80.4484 129.31 80.4484C130.466 80.4484 131.01 79.3818 131.01 78.0883Z" fill="white"/>
<path d="M133.323 75.0639H134.167V75.9307C134.662 75.253 135.286 74.9141 135.969 74.9141C137.137 74.9141 137.598 75.7539 137.598 76.7962V81.087H136.755V76.9717C136.755 76.2183 136.511 75.7417 135.771 75.7417C135.148 75.7417 134.559 76.2561 134.166 76.8461V81.087H133.322V75.0639H133.323Z" fill="white"/>
<path d="M139.01 79.6188C139.01 78.0256 140.63 77.549 141.97 77.549H142.213V76.9833C142.213 76.0922 141.866 75.7276 141.102 75.7276C140.592 75.7276 140.156 75.9045 139.657 76.3811L139.207 75.7411C139.75 75.1889 140.385 74.9121 141.159 74.9121C142.374 74.9121 143.057 75.5399 143.057 76.9077V79.7187C143.057 80.3209 143.114 80.7988 143.184 81.0864H142.342C142.306 80.9231 142.271 80.5464 142.26 80.36C141.888 80.861 141.276 81.2377 140.593 81.2377C139.668 81.2377 139.01 80.5977 139.01 79.6188ZM142.213 79.581V78.2254H141.97C140.78 78.2254 139.912 78.5765 139.912 79.5931C139.912 80.221 140.397 80.4478 140.734 80.4478C141.357 80.4478 141.853 80.0968 142.213 79.581Z" fill="white"/>
<path d="M145.775 72.0527H144.929V81.0867H145.775V72.0527Z" fill="white"/>
<path d="M150.456 72.7305H152.388C153.936 72.7305 155.089 73.5338 155.089 75.1392C155.089 76.7837 154.051 77.7113 152.259 77.7113H151.356V81.0867H150.455V72.7305H150.456ZM152.259 76.8836C153.611 76.8836 154.165 76.2814 154.165 75.177C154.165 74.2238 153.657 73.5595 152.293 73.5595H151.356V76.8836H152.259Z" fill="white"/>
<path d="M155.857 78.0384C155.857 76.2696 156.874 74.9141 158.353 74.9141C159.729 74.9141 160.538 75.9807 160.538 77.6252C160.538 77.7629 160.525 77.9006 160.515 78.0519H156.759C156.781 79.3305 157.254 80.4484 158.503 80.4484C159.278 80.4484 159.798 80.0717 160.04 79.9083L160.387 80.6239C160.111 80.8251 159.486 81.2383 158.481 81.2383C156.735 81.2383 155.857 79.8206 155.857 78.0384ZM159.672 77.3228C159.647 76.4695 159.29 75.7039 158.332 75.7039C157.441 75.7039 156.956 76.3817 156.805 77.3228H159.672Z" fill="white"/>
<path d="M162.009 75.0639H162.853V75.9307C163.348 75.253 163.974 74.9141 164.654 74.9141C165.822 74.9141 166.284 75.7539 166.284 76.7962V81.087H165.44V76.9717C165.44 76.2183 165.196 75.7417 164.459 75.7417C163.833 75.7417 163.244 76.2561 162.853 76.8461V81.087H162.009V75.0639Z" fill="white"/>
<path d="M167.662 80.6739L168.031 79.9705C168.24 80.1338 168.736 80.4606 169.405 80.4606C170.099 80.4606 170.538 80.146 170.538 79.5951C170.538 79.0429 170.124 78.8039 169.315 78.4272C168.447 78.0262 167.789 77.5996 167.789 76.5694C167.789 75.6418 168.435 74.9141 169.547 74.9141C170.46 74.9141 171.014 75.3407 171.187 75.4919L170.771 76.1562C170.574 75.9929 170.159 75.7039 169.533 75.7039C168.944 75.7039 168.611 76.0185 168.611 76.5329C168.611 77.0973 169.058 77.3349 169.673 77.6117C170.573 78.0262 171.394 78.4529 171.394 79.4696C171.394 80.5605 170.631 81.2518 169.419 81.2518C168.621 81.2518 168.008 80.9372 167.662 80.6739Z" fill="white"/>
<path d="M172.726 73.2559C172.726 72.8792 173.005 72.5781 173.351 72.5781C173.698 72.5781 173.972 72.8792 173.972 73.2559C173.972 73.6326 173.698 73.9337 173.351 73.9337C173.005 73.9337 172.726 73.6326 172.726 73.2559ZM172.924 75.0624H173.778V81.0855H172.924V75.0624Z" fill="white"/>
<path d="M175.259 78.0883C175.259 76.6828 175.916 74.9141 177.792 74.9141C179.662 74.9141 180.437 76.6585 180.437 78.064C180.437 79.4695 179.695 81.2383 177.824 81.2383C175.952 81.2383 175.259 79.4952 175.259 78.0883ZM179.535 78.0883C179.535 76.7962 178.933 75.7039 177.778 75.7039C176.623 75.7039 176.16 76.7719 176.16 78.064C176.16 79.3561 176.679 80.4484 177.838 80.4484C178.992 80.4484 179.535 79.3818 179.535 78.0883Z" fill="white"/>
<path d="M181.849 75.0639H182.694V75.9307C183.19 75.253 183.814 74.9141 184.495 74.9141C185.662 74.9141 186.124 75.7539 186.124 76.7962V81.087H185.281V76.9717C185.281 76.2183 185.038 75.7417 184.299 75.7417C183.675 75.7417 183.085 76.2561 182.694 76.8461V81.087H181.849V75.0639Z" fill="white"/>
<path d="M187.501 80.6739L187.872 79.9705C188.081 80.1338 188.577 80.4606 189.246 80.4606C189.94 80.4606 190.379 80.146 190.379 79.5951C190.379 79.0429 189.964 78.8039 189.155 78.4272C188.289 78.0262 187.631 77.5996 187.631 76.5694C187.631 75.6418 188.277 74.9141 189.388 74.9141C190.299 74.9141 190.854 75.3407 191.029 75.4919L190.611 76.1562C190.415 75.9929 190 75.7039 189.375 75.7039C188.786 75.7039 188.451 76.0185 188.451 76.5329C188.451 77.0973 188.902 77.3349 189.515 77.6117C190.415 78.0262 191.236 78.4529 191.236 79.4696C191.236 80.5605 190.473 81.2518 189.26 81.2518C188.46 81.2518 187.848 80.9372 187.501 80.6739Z" fill="white"/>
<path d="M197.538 72.7305H198.417L201.374 81.088H200.392L199.685 79.0169H196.185L195.48 81.088H194.589L197.538 72.7305ZM199.398 78.1892L198.427 75.3282C198.184 74.6248 198.08 74.2737 197.953 73.8849H197.929C197.803 74.2994 197.675 74.6882 197.456 75.3282L196.473 78.1892H199.398Z" fill="white"/>
<path d="M202 79.3566V75.0645H202.843V79.1811C202.843 79.9345 203.084 80.4111 203.835 80.4111C204.678 80.4111 205.314 79.4822 205.431 79.3067V75.0645H206.275V79.8211C206.275 80.3355 206.332 80.8499 206.378 81.0875H205.523C205.498 80.9363 205.452 80.4975 205.442 80.1964C205.188 80.5731 204.597 81.2388 203.639 81.2388C202.461 81.2401 202 80.3989 202 79.3566Z" fill="white"/>
<path d="M208.425 79.645V75.7916H207.513V75.0639H208.425V73.3438H209.269V75.0639H210.668V75.7916H209.269V79.5572C209.269 80.1581 209.432 80.4483 209.917 80.4483C210.265 80.4483 210.576 80.2593 210.668 80.1837L210.98 80.875C210.819 80.9871 210.415 81.2382 209.811 81.2382C208.89 81.2382 208.425 80.6482 208.425 79.645Z" fill="white"/>
<path d="M212.16 72.0527H213.005V75.9304C213.246 75.5915 213.837 74.9138 214.807 74.9138C215.973 74.9138 216.436 75.7536 216.436 76.7959V81.0867H215.593V76.9714C215.593 76.218 215.349 75.7414 214.609 75.7414C213.755 75.7414 213.119 76.6703 213.005 76.8458V81.0867H212.16V72.0527Z" fill="white"/>
<path d="M217.802 78.0883C217.802 76.6828 218.46 74.9141 220.334 74.9141C222.205 74.9141 222.98 76.6585 222.98 78.064C222.98 79.4695 222.24 81.2383 220.367 81.2383C218.495 81.2383 217.802 79.4952 217.802 78.0883ZM222.079 78.0883C222.079 76.7962 221.477 75.7039 220.321 75.7039C219.166 75.7039 218.705 76.7719 218.705 78.064C218.705 79.3561 219.223 80.4484 220.38 80.4484C221.535 80.4484 222.079 79.3818 222.079 78.0883Z" fill="white"/>
<path d="M224.393 75.0639H225.237V76.0063C225.455 75.6026 225.942 74.9141 226.714 74.9141C227.051 74.9141 227.223 75.0018 227.293 75.0383L227.084 75.9172C227.026 75.8794 226.887 75.8173 226.599 75.8173C225.767 75.8173 225.303 76.8596 225.236 77.0473V81.087H224.391V75.0639H224.393Z" fill="white"/>
<path d="M228.253 73.2559C228.253 72.8792 228.531 72.5781 228.876 72.5781C229.223 72.5781 229.5 72.8792 229.5 73.2559C229.5 73.6326 229.221 73.9337 228.876 73.9337C228.531 73.9337 228.253 73.6326 228.253 73.2559ZM228.449 75.0624H229.303V81.0855H228.449V75.0624Z" fill="white"/>
<path d="M231.523 79.645V75.7916H230.612V75.0639H231.523V73.3438H232.367V75.0639H233.766V75.7916H232.367V79.5572C232.367 80.1581 232.532 80.4483 233.015 80.4483C233.364 80.4483 233.674 80.2593 233.766 80.1837L234.079 80.875C233.917 80.9871 233.513 81.2382 232.911 81.2382C231.988 81.2382 231.523 80.6482 231.523 79.645Z" fill="white"/>
<path d="M234.473 83.9364L234.59 83.1709C234.671 83.183 234.739 83.2087 235.016 83.2087C235.792 83.2087 236.114 82.7321 236.415 81.8409L236.68 81.0497L234.59 75.0645H235.535L237.12 79.871H237.144L238.681 75.0645H239.581L237.224 81.8909C236.843 83.0075 236.368 83.9999 235.005 83.9999C234.715 83.9999 234.577 83.9621 234.473 83.9364Z" fill="white"/>
<path d="M217.951 15.8164L197.309 15.8218C195.974 15.8218 195.974 17.9564 197.309 17.9564H217.958C219.434 17.9564 220.626 19.0244 220.626 20.8552V24.0578C219.924 23.5232 219.081 23.295 218.169 23.295H196.045C193.656 23.295 191.829 25.1258 191.761 27.8694C191.688 31.608 191.761 33.8182 191.761 33.8182C191.761 36.6414 193.866 38.4709 196.466 38.4709H217.817C220.415 38.4709 222.523 36.5631 222.594 33.5131V20.8552C222.594 18.109 220.866 15.9649 217.951 15.8164ZM220.6 33.4361C220.6 36.2283 218.03 36.2283 218.03 36.2283H196.163C193.59 36.2283 193.59 33.4361 193.59 33.4361V28.2285C193.59 25.4377 196.163 25.4377 196.163 25.4377H218.03C220.6 25.4377 220.6 28.2285 220.6 28.2285V33.4361Z" fill="white"/>
<path d="M184.666 15.8184H157.064C156.502 15.8184 156.01 16.353 156.01 16.8863V49.7063C156.01 51.1564 157.977 51.1564 157.977 49.7063V41.1179C157.977 39.3208 159.576 38.4702 160.647 38.4702H184.316C187.054 38.4702 188.953 36.4098 188.953 33.5893V20.548C188.951 17.6505 187.265 15.8184 184.666 15.8184ZM186.915 33.588C186.915 35.2649 185.931 36.2572 184.316 36.2572H160.647C159.663 36.2572 158.82 36.5624 158.046 37.0957V17.9543H184.737H184.876C186.282 17.9543 186.916 18.9454 186.916 20.5467V33.588H186.915Z" fill="white"/>
<path d="M148.833 15.8203H126.814C126.814 15.8203 122.408 15.8203 122.408 20.6067V33.6264C122.408 33.6264 122.407 38.4127 126.814 38.4127H148.833C148.833 38.4127 153.239 38.4127 153.239 33.6264V20.6067C153.239 20.6067 153.239 15.8203 148.833 15.8203ZM151.172 33.4657C151.172 36.2578 148.601 36.2578 148.601 36.2578H127.013C124.443 36.2578 124.443 33.4657 124.443 33.4657V20.7471C124.443 17.9549 127.013 17.9549 127.013 17.9549H148.601C151.172 17.9549 151.172 20.7471 151.172 20.7471V33.4657Z" fill="white"/>
<path d="M119.57 37.3276V16.8131C119.57 15.3644 117.603 15.3644 117.603 16.8131V37.3276C117.603 38.7763 119.57 38.7763 119.57 37.3276Z" fill="white"/>
<path d="M88.5856 38.3954L109.196 38.3913C110.529 38.3913 110.529 36.2567 109.196 36.2567H88.5794C87.1059 36.2567 85.9133 35.1887 85.9133 33.3579V30.1553C86.6147 30.6899 87.4565 30.9181 88.368 30.9181H110.458C112.842 30.9181 114.666 29.0873 114.735 26.3424C114.805 22.6051 114.735 20.3935 114.735 20.3935C114.735 17.5717 112.631 15.7422 110.036 15.7422H88.7187C86.1235 15.7422 84.0195 17.6486 83.9498 20.6987V33.3579C83.9498 36.1041 85.6746 38.2469 88.5856 38.3954ZM85.9394 20.777C85.9394 17.9848 88.5073 17.9848 88.5073 17.9848H110.34C112.906 17.9848 112.906 20.777 112.906 20.777V25.9832C112.906 28.7754 110.34 28.7754 110.34 28.7754H88.5073C85.9394 28.7754 85.9394 25.9832 85.9394 25.9832V20.777Z" fill="white"/>
<path d="M19.6 16.0197L39.8016 2.84981L39.7918 2.8437L39.8016 2.83607L38.4538 1.93159C36.536 0.64669 33.992 0.00195312 31.4565 0.00195312C28.9869 0.00195312 26.5201 0.613081 24.6388 1.83992L2.8886 16.0197C0.956747 17.2771 0.000644168 18.9546 0.0174917 20.6306C0.0329354 22.2639 0.969385 23.8986 2.83666 25.1499L24.4282 39.6184C26.3446 40.9033 28.8872 41.5496 31.4228 41.5496C33.8952 41.5496 36.3619 40.9385 38.2404 39.7116L39.8016 38.7109V38.7094L19.5509 25.1515C15.7644 22.6137 15.7868 18.5054 19.6 16.0197Z" fill="white"/>
<path d="M76.7127 16.0162L54.9611 1.83798C53.0798 0.612662 50.6116 0 48.142 0C45.6065 0 43.0639 0.644742 41.1475 1.92964L39.7997 2.83717L39.8095 2.84481L39.7997 2.85092L60.0013 16.0208C63.8131 18.5065 63.8356 22.6133 60.0519 25.1526L39.7997 38.7105L39.8011 38.712H39.7997L41.3581 39.7112C43.2394 40.9365 45.7076 41.5492 48.1771 41.5492C50.7141 41.5492 53.2567 40.9029 55.1717 39.6165L76.7647 25.148C78.6306 23.8967 79.567 22.2619 79.5839 20.6287C79.5993 18.9527 78.6446 17.2766 76.7127 16.0162Z" fill="white"/>
<path d="M79.595 24.3184C79.0418 25.0792 78.3188 25.7759 77.4188 26.3794L55.8287 40.8479C53.7803 42.2199 51.0678 42.9777 48.1897 42.9777C45.3916 42.9777 42.7451 42.255 40.7375 40.9487L39.7968 40.3361L38.8575 40.9487C36.8513 42.255 34.2062 42.9777 31.4067 42.9777C28.5286 42.9777 25.8133 42.2214 23.7649 40.8479L2.17614 26.3794C1.27761 25.7759 0.553161 25.0792 0.00140319 24.3184H0C0 26.9615 0.00140319 32.7107 0.00140319 32.7153C-0.029484 34.3898 0.906961 36.0719 2.81916 37.3553L24.4107 51.8253C26.3286 53.1102 28.8697 53.7549 31.4067 53.7549C33.8777 53.7549 36.3444 53.1438 38.2244 51.9185L39.7954 50.878L41.3692 51.9185C43.2491 53.1438 45.7159 53.7549 48.1869 53.7549C50.7239 53.7549 53.2636 53.1102 55.1814 51.8253L76.7716 37.3553C78.6866 36.0719 79.6231 34.3898 79.5922 32.7153C79.595 32.7107 79.595 26.9615 79.595 24.3184Z" fill="white"/>
<path d="M39.7956 8.16016L40.2688 9.29991L41.823 9.29533L40.5678 10.0104L41.0733 11.1944L39.7956 10.455L38.5166 11.1944L39.0235 10.0104L37.7697 9.29533L39.3225 9.29991L39.7956 8.16016Z" fill="white"/>
<path d="M39.7955 27.957L40.3725 29.6544L42.2707 29.6453L40.7404 30.7147L41.3623 32.4947L39.7955 31.3793L38.2273 32.4947L38.8492 30.7147L37.3203 29.6468L39.2171 29.6544L39.7955 27.957Z" fill="white"/>
<path d="M34.4953 9.25391L34.9067 10.4227L36.4792 10.4166L35.1679 11.1484L35.6101 12.3646L34.3592 11.6037L33.0226 12.3646L33.6052 11.1484L32.3768 10.4166L33.9492 10.4227L34.4953 9.25391Z" fill="white"/>
<path d="M30.2764 12.4102L30.647 13.6614L32.2742 13.6553L30.8815 14.4406L31.283 15.7423L30.0237 14.928L28.6028 15.7439L29.2641 14.4406L28.0286 13.6553L29.6544 13.6614L30.2764 12.4102Z" fill="white"/>
<path d="M28.2496 17.0723L28.609 18.4504L30.3176 18.4443L28.8393 19.309L29.231 20.7467L27.9267 19.8468L26.4132 20.7467L27.1405 19.309L25.8615 18.4443L27.5673 18.4504L28.2496 17.0723Z" fill="white"/>
<path d="M29.2769 22.2148L29.6715 23.7396L31.4685 23.732L29.9228 24.6914L30.3524 26.285L28.9681 25.2873L27.3844 26.2865L28.1341 24.6914L26.7793 23.732L28.575 23.7396L29.2769 22.2148Z" fill="white"/>
<path d="M33.5083 26.3477L33.9828 27.9946L35.8529 27.9885L34.2833 29.0259L34.7985 30.7524L33.3159 29.6707L31.7084 30.7524L32.423 29.0259L30.9741 27.9885L32.8428 27.9946L33.5083 26.3477Z" fill="white"/>
<path d="M45.101 9.25391L44.6897 10.4227L43.1158 10.4166L44.4271 11.1484L43.9863 12.3646L45.2358 11.6037L46.5738 12.3646L45.9911 11.1484L47.2196 10.4166L45.6472 10.4227L45.101 9.25391Z" fill="white"/>
<path d="M49.3199 12.4102L48.9479 13.6614L47.3221 13.6553L48.7134 14.4406L48.3133 15.7423L49.5726 14.928L50.9935 15.7439L50.3322 14.4406L51.5663 13.6553L49.9405 13.6614L49.3199 12.4102Z" fill="white"/>
<path d="M51.3487 17.0723L50.9865 18.4504L49.2778 18.4443L50.759 19.309L50.3659 20.7467L51.6688 19.8468L53.1823 20.7467L52.4578 19.309L53.734 18.4443L52.0268 18.4504L51.3487 17.0723Z" fill="white"/>
<path d="M50.3198 22.2148L49.9253 23.7396L48.1268 23.732L49.674 24.6914L49.243 26.285L50.6287 25.2873L52.2124 26.2865L51.4613 24.6914L52.8161 23.732L51.0204 23.7396L50.3198 22.2148Z" fill="white"/>
<path d="M46.0867 26.3477L45.6122 27.9946L43.7435 27.9885L45.3103 29.0259L44.7965 30.7524L46.2791 29.6707L47.8866 30.7524L47.1734 29.0259L48.6209 27.9885L46.7536 27.9946L46.0867 26.3477Z" fill="white"/>
</svg>
