<svg width="165" height="40" viewBox="0 0 165 40" fill="none" xmlns="http://www.w3.org/2000/svg">
<path d="M161.559 11.7227L146.258 11.7267C145.268 11.7267 145.268 13.309 146.258 13.309H161.564C162.658 13.309 163.542 14.1006 163.542 15.4578V17.8317C163.021 17.4354 162.396 17.2663 161.72 17.2663H145.32C143.55 17.2663 142.195 18.6234 142.145 20.6571C142.091 23.4284 142.145 25.0667 142.145 25.0667C142.145 27.1594 143.705 28.5156 145.633 28.5156H161.459C163.385 28.5156 164.947 27.1014 165 24.8405V15.4578C165 13.4221 163.72 11.8327 161.559 11.7227ZM163.522 24.7835C163.522 26.8532 161.617 26.8532 161.617 26.8532H145.408C143.501 26.8532 143.501 24.7835 143.501 24.7835V20.9233C143.501 18.8546 145.408 18.8546 145.408 18.8546H161.617C163.522 18.8546 163.522 20.9233 163.522 20.9233V24.7835Z" fill="white"/>
<path d="M136.886 11.7266H116.426C116.009 11.7266 115.644 12.1229 115.644 12.5182V36.8464C115.644 37.9213 117.102 37.9213 117.102 36.8464V30.4801C117.102 29.148 118.288 28.5175 119.081 28.5175H136.626C138.656 28.5175 140.064 26.9902 140.064 24.8995V15.2325C140.063 13.0847 138.813 11.7266 136.886 11.7266ZM138.553 24.8985C138.553 26.1415 137.824 26.8771 136.626 26.8771H119.081C118.352 26.8771 117.727 27.1033 117.154 27.4986V13.3099H136.939H137.042C138.084 13.3099 138.554 14.0445 138.554 15.2315V24.8985H138.553Z" fill="white"/>
<path d="M110.324 11.7266H94.0025C94.0025 11.7266 90.7358 11.7266 90.7358 15.2745V24.9255C90.7358 24.9255 90.7358 28.4734 94.0025 28.4734H110.324C110.324 28.4734 113.59 28.4734 113.59 24.9255V15.2745C113.59 15.2745 113.59 11.7266 110.324 11.7266ZM112.058 24.8064C112.058 26.8761 110.152 26.8761 110.152 26.8761H94.15C92.2447 26.8761 92.2447 24.8064 92.2447 24.8064V15.3786C92.2447 13.3089 94.15 13.3089 94.15 13.3089H110.152C112.058 13.3089 112.058 15.3786 112.058 15.3786V24.8064Z" fill="white"/>
<path d="M88.6325 27.6702V12.4636C88.6325 11.3897 87.1743 11.3897 87.1743 12.4636V27.6702C87.1743 28.7441 88.6325 28.7441 88.6325 27.6702Z" fill="white"/>
<path d="M65.6654 28.4619L80.9428 28.4589C81.9309 28.4589 81.9309 26.8765 80.9428 26.8765H65.6608C64.5685 26.8765 63.6845 26.0849 63.6845 24.7278V22.3538C64.2044 22.7501 64.8284 22.9193 65.5041 22.9193H81.8784C83.6454 22.9193 84.9977 21.5621 85.0493 19.5274C85.1009 16.7571 85.0493 15.1178 85.0493 15.1178C85.0493 13.026 83.4896 11.6699 81.5659 11.6699H65.764C63.8403 11.6699 62.2807 13.0831 62.2291 15.344V24.7278C62.2291 26.7634 63.5076 28.3518 65.6654 28.4619ZM63.7039 15.402C63.7039 13.3323 65.6073 13.3323 65.6073 13.3323H81.7908C83.6934 13.3323 83.6934 15.402 83.6934 15.402V19.2612C83.6934 21.3309 81.7908 21.3309 81.7908 21.3309H65.6073C63.7039 21.3309 63.7039 19.2612 63.7039 19.2612V15.402Z" fill="white"/>
<path d="M14.5297 11.8733L29.5044 2.11101L29.4971 2.10648L29.5044 2.10082L28.5053 1.43037C27.0837 0.477918 25.1979 0 23.3184 0C21.4878 0 19.6593 0.453006 18.2647 1.36242L2.14214 11.8733C0.710129 12.8054 0.00140664 14.0489 0.0138951 15.2912C0.0253429 16.5019 0.719497 17.7137 2.10363 18.6412L18.1086 29.3662C19.5292 30.3186 21.4139 30.7977 23.2934 30.7977C25.1261 30.7977 26.9546 30.3447 28.3471 29.4352L29.5044 28.6934V28.6923L14.4932 18.6424C11.6864 16.7612 11.7031 13.7159 14.5297 11.8733Z" fill="white"/>
<path d="M56.8643 11.8722L40.7407 1.36242C39.3461 0.454143 37.5165 0 35.6859 0C33.8064 0 31.9217 0.477923 30.5012 1.43037L29.5021 2.10309L29.5094 2.10875L29.5021 2.11328L44.4768 11.8756C47.3023 13.7182 47.319 16.7624 44.5143 18.6446L29.5021 28.6946L29.5031 28.6957H29.5021L30.6573 29.4364C32.0518 30.3447 33.8814 30.7988 35.712 30.7988C37.5925 30.7988 39.4772 30.3197 40.8968 29.3662L56.9028 18.6412C58.2859 17.7137 58.9801 16.5019 58.9925 15.2912C59.004 14.0489 58.2963 12.8065 56.8643 11.8722Z" fill="white"/>
<path d="M59.0007 18.0254C58.5907 18.5894 58.0547 19.1058 57.3876 19.5532L41.3836 30.2781C39.8652 31.2951 37.8546 31.8568 35.7212 31.8568C33.647 31.8568 31.6853 31.3211 30.1971 30.3528L29.4998 29.8987L28.8036 30.3528C27.3164 31.3211 25.3557 31.8568 23.2806 31.8568C21.1471 31.8568 19.1344 31.2962 17.616 30.2781L1.61309 19.5532C0.947041 19.1058 0.410037 18.5894 0.00104013 18.0254H0C0 19.9846 0.00104013 24.2463 0.00104013 24.2497C-0.0218554 25.4909 0.672295 26.7378 2.08974 27.6892L18.0947 38.4152C19.5163 39.3677 21.4 39.8456 23.2806 39.8456C25.1122 39.8456 26.9407 39.3926 28.3342 38.4843L29.4988 37.7131L30.6654 38.4843C32.0589 39.3926 33.8874 39.8456 35.7191 39.8456C37.5996 39.8456 39.4823 39.3677 40.9039 38.4152L56.9078 27.6892C58.3274 26.7378 59.0215 25.4909 58.9986 24.2497C59.0007 24.2463 59.0007 19.9846 59.0007 18.0254Z" fill="white"/>
<path d="M29.4988 6.04883L29.8495 6.89369L31.0016 6.89029L30.0712 7.42031L30.4459 8.29801L29.4988 7.74987L28.5507 8.29801L28.9264 7.42031L27.9971 6.89029L29.1481 6.89369L29.4988 6.04883Z" fill="white"/>
<path d="M29.4989 20.7227L29.9266 21.9809L31.3337 21.9741L30.1993 22.7668L30.6603 24.0862L29.4989 23.2595L28.3364 24.0862L28.7975 22.7668L27.6641 21.9752L29.0701 21.9809L29.4989 20.7227Z" fill="white"/>
<path d="M25.5702 6.85938L25.8752 7.72575L27.0408 7.72122L26.0687 8.2637L26.3966 9.16518L25.4693 8.60119L24.4785 9.16518L24.9104 8.2637L23.9998 7.72122L25.1654 7.72575L25.5702 6.85938Z" fill="white"/>
<path d="M22.4425 9.19922L22.7172 10.1267L23.9234 10.1222L22.891 10.7043L23.1887 11.6692L22.2551 11.0656L21.202 11.6704L21.6921 10.7043L20.7763 10.1222L21.9814 10.1267L22.4425 9.19922Z" fill="white"/>
<path d="M20.9402 12.6562L21.2066 13.6778L22.4732 13.6732L21.3773 14.3143L21.6677 15.38L20.7009 14.7129L19.579 15.38L20.1181 14.3143L19.17 13.6732L20.4344 13.6778L20.9402 12.6562Z" fill="white"/>
<path d="M21.7019 16.4668L21.9943 17.597L23.3264 17.5914L22.1806 18.3026L22.4991 19.4838L21.4729 18.7443L20.299 19.485L20.8547 18.3026L19.8505 17.5914L21.1815 17.597L21.7019 16.4668Z" fill="white"/>
<path d="M24.8387 19.5312L25.1905 20.7521L26.5767 20.7476L25.4132 21.5165L25.7951 22.7963L24.6962 21.9945L23.5046 22.7963L24.0343 21.5165L22.9603 20.7476L24.3454 20.7521L24.8387 19.5312Z" fill="white"/>
<path d="M33.4319 6.85938L33.127 7.72575L31.9604 7.72122L32.9324 8.2637L32.6056 9.16518L33.5318 8.60119L34.5236 9.16518L34.0917 8.2637L35.0023 7.72122L33.8368 7.72575L33.4319 6.85938Z" fill="white"/>
<path d="M36.5591 9.19922L36.2833 10.1267L35.0782 10.1222L36.1095 10.7043L35.8129 11.6692L36.7464 11.0656L37.7996 11.6704L37.3095 10.7043L38.2242 10.1222L37.0191 10.1267L36.5591 9.19922Z" fill="white"/>
<path d="M38.0624 12.6562L37.7939 13.6778L36.5274 13.6732L37.6253 14.3143L37.3339 15.38L38.2997 14.7129L39.4216 15.38L38.8846 14.3143L39.8306 13.6732L38.5651 13.6778L38.0624 12.6562Z" fill="white"/>
<path d="M37.3003 16.4668L37.0078 17.597L35.6747 17.5914L36.8215 18.3026L36.5021 19.4838L37.5292 18.7443L38.7031 19.485L38.1464 18.3026L39.1506 17.5914L37.8196 17.597L37.3003 16.4668Z" fill="white"/>
<path d="M34.162 19.5312L33.8103 20.7521L32.4251 20.7476L33.5865 21.5165L33.2056 22.7963L34.3046 21.9945L35.4962 22.7963L34.9675 21.5165L36.0405 20.7476L34.6564 20.7521L34.162 19.5312Z" fill="white"/>
</svg>
